<svg width="501" height="900" viewBox="0 0 501 900" fill="none" xmlns="http://www.w3.org/2000/svg">
<rect width="501" height="900" fill="#0A2FB6"/>
<path d="M431.5 899.5C431.5 911.63 421.223 921.5 408.5 921.5C395.777 921.5 385.5 911.63 385.5 899.5C385.5 887.37 395.777 877.5 408.5 877.5C421.223 877.5 431.5 887.37 431.5 899.5Z" stroke="white" stroke-opacity="0.5"/>
<path d="M441.5 567.5C441.5 584.599 426.971 598.5 409 598.5C391.029 598.5 376.5 584.599 376.5 567.5C376.5 550.401 391.029 536.5 409 536.5C426.971 536.5 441.5 550.401 441.5 567.5Z" stroke="white" stroke-opacity="0.5"/>
<path d="M241.5 863C241.5 869.886 235.698 875.5 228.5 875.5C221.302 875.5 215.5 869.886 215.5 863C215.5 856.114 221.302 850.5 228.5 850.5C235.698 850.5 241.5 856.114 241.5 863Z" stroke="white" stroke-opacity="0.5"/>
<path d="M454.5 57C454.5 63.8859 448.698 69.5 441.5 69.5C434.302 69.5 428.5 63.8859 428.5 57C428.5 50.1141 434.302 44.5 441.5 44.5C448.698 44.5 454.5 50.1141 454.5 57Z" stroke="white" stroke-opacity="0.5"/>
<path d="M142.5 80.5C142.5 90.9701 133.57 99.5 122.5 99.5C111.43 99.5 102.5 90.9701 102.5 80.5C102.5 70.0299 111.43 61.5 122.5 61.5C133.57 61.5 142.5 70.0299 142.5 80.5Z" stroke="white" stroke-opacity="0.5"/>
<path d="M57.5 843.5C57.5 846.779 54.6254 849.5 51 849.5C47.3746 849.5 44.5 846.779 44.5 843.5C44.5 840.221 47.3746 837.5 51 837.5C54.6254 837.5 57.5 840.221 57.5 843.5Z" stroke="white" stroke-opacity="0.5"/>
</svg>
